<?xml version="1.0" standalone="no"?>
<!DOCTYPE svg PUBLIC "-//W3C//DTD SVG 20010904//EN"
 "http://www.w3.org/TR/2001/REC-SVG-20010904/DTD/svg10.dtd">
<svg version="1.0" xmlns="http://www.w3.org/2000/svg"
 width="1200.000000pt" height="1200.000000pt" viewBox="0 0 1200.000000 1200.000000"
 preserveAspectRatio="xMidYMid meet">

<g transform="translate(0.000000,1200.000000) scale(0.100000,-0.100000)"
fill="#000000" stroke="none">
<path d="M9057 8934 c-16 -31 -27 -58 -25 -59 10 -9 114 -57 178 -83 41 -16
104 -43 140 -60 36 -17 90 -41 122 -55 l56 -25 21 50 c12 28 21 54 21 57 0 4
-31 22 -70 41 -38 19 -70 38 -70 43 0 4 -4 6 -9 3 -5 -3 -79 28 -166 69 -86
41 -160 75 -164 75 -4 0 -19 -25 -34 -56z"/>
<path d="M9725 7793 c-43 -2 -85 -9 -92 -15 -7 -6 -13 -27 -13 -47 0 -51 32
-81 87 -81 24 0 48 -7 57 -15 8 -8 25 -15 38 -15 13 0 29 -5 36 -12 15 -15 15
-51 0 -66 -15 -15 8 -125 25 -119 6 2 28 35 48 73 34 62 38 77 38 147 1 74 0
79 -32 113 -36 40 -57 44 -192 37z"/>
<path d="M8260 7561 c41 -36 43 -41 32 -65 -14 -32 -46 -40 -128 -33 -35 2
-64 3 -64 1 0 -3 7 -20 15 -40 21 -51 109 -81 170 -58 22 9 65 96 65 132 0 40
-33 79 -78 92 -58 16 -60 12 -12 -29z"/>
<path d="M3210 7563 c0 -3 14 -21 31 -40 42 -48 36 -76 -16 -84 -24 -4 -55 -2
-77 6 -38 13 -38 13 -38 -15 0 -39 43 -88 84 -96 69 -12 126 45 126 125 0 48
-30 87 -77 100 -18 5 -33 7 -33 4z"/>
<path d="M4470 7564 c0 -4 18 -26 40 -50 46 -50 47 -55 21 -78 -15 -14 -33
-17 -85 -14 -36 1 -66 -1 -66 -5 0 -21 31 -64 55 -75 71 -33 156 0 176 68 18
58 3 108 -40 137 -31 21 -101 32 -101 17z"/>
<path d="M7010 7564 c0 -3 11 -20 25 -38 27 -36 32 -65 13 -84 -16 -16 -87
-15 -120 2 -25 13 -28 13 -28 0 0 -27 20 -54 62 -84 76 -56 159 -30 178 54 16
70 -9 125 -67 147 -27 10 -63 12 -63 3z"/>
<path d="M5775 7514 c42 -56 43 -68 10 -90 -19 -12 -41 -15 -84 -12 -55 4 -59
3 -50 -14 22 -40 114 -62 160 -38 27 15 49 62 49 105 0 48 -45 95 -90 95 l-31
0 36 -46z"/>
<path d="M8972 7450 c-30 -63 -28 -86 8 -99 29 -10 30 -9 29 22 0 18 -4 52 -8
77 l-8 45 -21 -45z"/>
<path d="M8927 7166 c-2 -17 -26 -239 -53 -494 l-48 -463 117 -116 c64 -65
119 -114 122 -111 4 4 2 109 -4 235 -6 125 -15 323 -21 438 -5 116 -12 271
-16 346 l-6 137 -43 30 -43 30 -5 -32z"/>
<path d="M2931 7053 c-41 -260 -92 -696 -83 -705 5 -5 226 -7 492 -6 417 3
484 5 490 18 5 8 27 173 50 365 23 193 44 360 47 373 l5 22 -495 0 -495 0 -11
-67z m783 -146 c9 -15 7 -22 -13 -38 -22 -18 -41 -19 -322 -19 -296 0 -298 0
-310 22 -10 18 -8 24 11 40 21 17 44 18 323 16 277 -3 301 -4 311 -21z m-684
-47 c0 -5 -4 -10 -10 -10 -5 0 -10 5 -10 10 0 6 5 10 10 10 6 0 10 -4 10 -10z
m444 -106 c20 -19 20 -29 0 -48 -14 -14 -44 -16 -217 -14 l-202 3 0 30 c0 26
4 31 35 36 19 4 110 7 202 8 139 1 169 -2 182 -15z m210 -186 c8 -13 8 -23 0
-35 -10 -16 -39 -18 -326 -21 -279 -2 -317 0 -329 14 -9 11 -10 20 -2 32 13
21 128 29 432 28 192 -1 215 -3 225 -18z"/>
<path d="M4675 6260 c-11 -12 -31 -20 -51 -20 -24 0 -42 -9 -64 -30 -17 -16
-35 -30 -40 -30 -16 0 -40 -58 -40 -98 0 -30 8 -48 36 -80 31 -36 80 -72 99
-72 12 0 4 77 -11 98 -20 29 -11 56 16 47 15 -5 20 -2 20 13 0 10 10 24 23 29
40 18 73 163 38 163 -4 0 -16 -9 -26 -20z"/>
<path d="M5618 6250 c-32 -15 -58 -26 -58 -23 0 2 -12 -9 -26 -26 -14 -17 -30
-29 -34 -26 -16 10 -21 -35 -7 -55 12 -17 16 -18 34 -5 11 8 23 11 27 8 3 -3
6 -1 6 5 0 9 54 28 70 25 3 -1 10 5 17 12 10 10 7 14 -13 19 -32 9 -22 28 37
67 58 38 25 38 -53 -1z"/>
<path d="M2369 5446 c-2 -2 -3 -50 -1 -106 3 -99 4 -102 25 -96 72 19 208 28
352 23 88 -3 172 -9 188 -13 l27 -6 0 101 0 101 -293 0 c-162 0 -296 -2 -298
-4z"/>
<path d="M6002 5304 c-7 -7 -12 -29 -12 -49 0 -31 3 -35 28 -37 65 -4 79 -2
117 16 22 11 45 19 51 19 6 0 11 6 11 14 0 8 -5 9 -11 4 -15 -12 -118 -10
-134 2 -9 7 -9 13 -1 23 6 8 10 14 8 15 -26 6 -47 3 -57 -7z"/>
<path d="M6098 5313 c6 -2 18 -2 25 0 6 3 1 5 -13 5 -14 0 -19 -2 -12 -5z"/>
<path d="M10180 4530 c-56 -65 -68 -99 -69 -202 -1 -41 2 -48 19 -48 15 0 34
29 85 130 l65 129 -23 27 -23 26 -54 -62z"/>
<path d="M9330 4410 c-60 -5 -71 -9 -128 -54 -34 -27 -61 -54 -59 -60 6 -18
65 -18 146 -1 100 22 121 36 121 80 0 18 -3 35 -7 37 -5 2 -37 1 -73 -2z"/>
<path d="M3195 4372 c-11 -2 -133 -116 -271 -254 -139 -138 -256 -248 -262
-244 -29 18 -105 -43 -110 -88 -2 -16 -11 -36 -20 -46 -17 -17 -60 -36 -74
-32 -5 1 -8 -2 -8 -7 0 -10 -69 -37 -82 -33 -5 1 -8 -3 -8 -9 0 -5 -4 -8 -9
-5 -5 4 -11 1 -13 -4 -2 -6 -13 -12 -26 -13 -12 0 -22 -5 -22 -10 0 -4 -4 -5
-10 -2 -5 3 -10 2 -10 -3 0 -12 -56 -33 -64 -25 -3 4 -6 1 -6 -5 0 -9 -70 -39
-79 -33 -2 2 -7 -1 -10 -6 -9 -12 -128 -66 -146 -66 -8 0 -15 -4 -15 -9 0 -5
-4 -6 -10 -3 -5 3 -10 2 -10 -4 0 -9 -38 -24 -62 -26 -5 0 -7 -3 -5 -7 1 -4
-7 -13 -17 -21 -24 -17 -13 -37 20 -37 13 0 24 -5 24 -10 0 -7 6 -7 19 -1 10
6 21 7 25 4 3 -3 6 -1 6 6 0 7 5 9 10 6 6 -3 10 -2 10 3 0 9 47 27 63 24 4 -1
7 3 7 9 0 5 5 7 10 4 6 -3 10 -2 10 3 0 9 47 27 63 24 4 -1 7 2 7 7 0 9 56 32
74 30 5 0 12 3 15 8 7 11 143 69 153 66 5 -2 8 1 8 5 0 12 50 33 61 27 5 -4 9
-1 9 5 0 6 5 8 10 5 6 -3 10 -2 10 4 0 9 70 37 79 32 2 -2 8 3 13 11 7 10 12
9 26 -7 24 -29 94 -39 134 -21 11 5 23 1 36 -12 11 -11 23 -18 26 -15 3 3 8
-2 12 -11 3 -9 10 -13 15 -10 5 3 12 -2 15 -10 3 -9 10 -13 15 -10 5 3 12 -2
15 -10 3 -9 10 -13 15 -10 5 3 12 -2 15 -10 3 -9 10 -13 15 -10 5 3 12 -2 15
-10 3 -9 10 -13 15 -10 5 3 12 -2 15 -10 3 -9 10 -14 14 -11 4 2 19 -6 33 -19
14 -13 28 -21 31 -19 3 3 8 -2 12 -11 3 -9 10 -14 14 -11 4 2 19 -6 34 -20 14
-13 26 -21 26 -17 0 4 7 -2 15 -12 8 -11 15 -16 15 -12 0 4 13 -2 28 -12 l28
-20 17 21 c9 12 17 28 17 38 0 10 -75 66 -201 150 -252 167 -246 162 -229 194
11 20 11 27 0 40 -7 8 -10 18 -6 22 3 3 0 16 -8 28 -13 20 -11 24 30 60 24 22
44 45 44 52 0 7 7 13 15 13 8 0 14 3 13 8 -2 4 76 87 172 185 96 99 178 186
182 195 15 38 3 52 -37 44z"/>
<path d="M7130 3777 c0 -2 -4 -28 -10 -58 -23 -129 -80 -613 -72 -621 4 -4
204 -7 443 -6 l434 3 7 35 c9 39 78 605 78 633 0 16 -28 17 -440 17 -242 0
-440 -1 -440 -3z m710 -125 c19 -16 21 -22 11 -40 -12 -22 -14 -22 -280 -22
-148 0 -282 -3 -298 -6 -20 -4 -36 0 -52 13 -20 17 -22 23 -12 41 11 21 17 22
249 25 130 1 265 3 298 5 47 1 67 -2 84 -16z m-670 -52 c0 -5 -5 -10 -11 -10
-5 0 -7 5 -4 10 3 6 8 10 11 10 2 0 4 -4 4 -10z m449 -114 c9 -10 9 -20 2 -34
-9 -17 -27 -19 -202 -25 -123 -4 -198 -3 -210 4 -21 11 -26 55 -6 62 6 3 100
6 208 6 159 1 199 -2 208 -13z m206 -201 l0 -30 -155 -6 c-258 -10 -470 -10
-491 1 -22 12 -25 40 -7 58 9 9 92 12 333 10 l320 -3 0 -30z"/>
<path d="M4330 2328 c0 -34 3 -38 33 -43 62 -11 360 -1 365 12 2 7 -5 16 -15
19 -10 3 -45 17 -78 30 -54 22 -72 24 -182 22 l-123 -3 0 -37z"/>
<path d="M4892 2307 c4 -40 15 -42 228 -52 113 -5 160 -4 160 4 0 6 -28 24
-63 39 -55 25 -78 29 -195 35 l-133 6 3 -32z"/>
<path d="M5738 678 c0 -7 -1 -20 -2 -28 -1 -17 -68 -31 -88 -19 -24 16 -56 9
-87 -17 -17 -14 -31 -33 -31 -42 -1 -10 -7 -2 -15 15 -19 44 -50 57 -106 46
-40 -8 -44 -12 -42 -36 2 -31 -13 -36 -22 -8 -9 29 -67 55 -101 46 -16 -4 -38
-8 -49 -9 -19 -1 -20 -8 -20 -111 0 -91 3 -110 15 -110 9 0 16 11 18 26 3 25
6 26 47 21 39 -4 47 -1 75 27 36 35 44 38 36 14 -3 -10 -1 -24 3 -32 8 -12 12
-12 25 -2 11 10 16 31 16 72 0 49 3 59 20 64 34 11 49 -11 52 -78 2 -47 7 -62
18 -62 10 0 17 14 21 40 3 22 7 34 8 26 0 -8 11 -25 23 -38 18 -20 19 -23 5
-23 -31 0 -18 -39 20 -59 34 -18 69 -13 100 13 25 21 28 31 31 100 3 48 8 76
16 76 7 0 10 -15 8 -43 -5 -55 19 -86 71 -93 l37 -4 0 65 c0 55 3 66 21 75 11
6 19 19 17 28 -3 13 -14 17 -53 17 -44 0 -50 3 -55 24 -6 27 -29 41 -32 19z
m-434 -100 c20 -29 20 -47 -1 -70 -22 -25 -59 -23 -77 4 -21 30 -20 44 4 68
26 26 55 25 74 -2z m350 0 c20 -29 20 -47 -1 -70 -18 -21 -53 -24 -71 -6 -18
18 -15 75 6 87 27 16 50 13 66 -11z m146 -38 c0 -49 -12 -66 -24 -34 -12 32
-7 84 9 84 11 0 15 -12 15 -50z m-150 -95 c-14 -17 -56 -20 -65 -6 -3 6 12 12
32 14 21 2 40 4 42 5 2 1 -2 -5 -9 -13z"/>
<path d="M5924 630 c-59 -24 -72 -104 -25 -151 40 -40 87 -40 126 1 l28 29 27
-29 c21 -22 37 -30 63 -30 39 0 79 27 82 56 1 10 6 27 10 37 5 12 1 27 -12 45
-44 60 -102 66 -148 16 l-23 -25 -30 31 c-31 30 -59 36 -98 20z m72 -44 c27
-20 14 -28 -42 -24 -46 3 -47 4 -30 21 21 21 46 22 72 3z m182 2 c21 -21 13
-28 -33 -28 -25 0 -45 4 -45 8 0 15 24 32 45 32 12 0 26 -5 33 -12z m-173 -78
c-20 -22 -64 -27 -83 -8 -22 22 -12 28 45 28 55 0 56 0 38 -20z m180 0 c-22
-24 -58 -26 -79 -4 -9 8 -16 17 -16 20 0 2 25 4 57 4 55 0 56 0 38 -20z"/>
<path d="M6319 611 c-60 -61 -26 -161 56 -161 21 0 42 7 54 19 19 19 20 19 37
0 25 -28 79 -25 109 7 l23 25 4 -23 c2 -13 10 -23 18 -23 11 0 16 15 18 60 3
61 14 85 38 85 9 0 14 -20 16 -72 2 -60 6 -73 21 -76 15 -3 17 5 17 61 0 67
15 95 44 84 11 -4 16 -26 18 -74 2 -52 6 -68 18 -68 12 0 16 17 18 77 3 74 2
78 -24 94 -21 15 -31 16 -56 6 -21 -8 -37 -8 -49 -1 -10 5 -36 6 -59 3 -32 -5
-40 -11 -40 -27 0 -19 -2 -19 -28 6 -33 32 -70 35 -103 8 -23 -19 -24 -19 -48
0 -34 27 -68 24 -102 -10z m88 -33 c29 -27 29 -41 1 -73 -25 -29 -35 -31 -60
-8 -20 18 -23 54 -8 84 14 25 38 24 67 -3z m141 10 c17 -17 15 -73 -2 -88 -42
-34 -92 22 -68 75 13 27 49 34 70 13z"/>
<path d="M6240 465 c0 -8 9 -15 20 -15 11 0 20 7 20 15 0 8 -9 15 -20 15 -11
0 -20 -7 -20 -15z"/>
</g>
</svg>
