<svg width="120" height="120" viewBox="0 0 120 120" fill="none" xmlns="http://www.w3.org/2000/svg">
<g filter="url(#filter0_b)">
<path d="M120 60C120 93.1371 93.1371 120 60 120C26.8629 120 0 93.1371 0 60C0 26.8629 26.8629 0 60 0C93.1371 0 120 26.8629 120 60Z" fill="white" fill-opacity="0.77" style="mix-blend-mode:luminosity"/>
<path d="M32.4739 62.6851V78.1727C32.4739 78.1727 47.3253 71.9857 60.4932 71.9857C73.6611 71.9857 88.5155 78.1727 88.5155 78.1727V62.4688C88.5155 62.4688 74.3468 54.9752 60.2739 54.9752C46.2071 54.969 32.4739 62.6851 32.4739 62.6851Z" fill="url(#paint0_linear)"/>
<path d="M104.247 56.9969L109.819 54.0007L104.247 50.9149V49.4508C104.247 49.4508 105.816 41.4938 96.8987 45.6545C96.4446 45.9017 96.2006 46.1519 96.1017 46.3959L59.3255 26L11 53.6578L29.2491 61.9484V59.258C29.2491 59.258 44.5607 50.6616 60.2553 50.6616C75.9468 50.6616 91.7402 59.017 91.7402 59.017V63.7152L101.816 58.3035C101.816 64.5708 101.816 77.9766 101.816 80.2129H98.4616V88L102.922 84.9173L107.873 88V80.2098H104.247V56.9969ZM101.813 48.0979C101.813 48.2863 101.813 48.8052 101.813 49.5651L98.8725 47.9341C99.9443 47.2237 101.813 46.2383 101.813 48.0979ZM100.818 56.6911C99.518 56.6911 98.4586 55.6378 98.4586 54.3374C98.4586 53.037 99.518 51.9806 100.818 51.9806C102.122 51.9806 103.175 53.037 103.175 54.3374C103.175 55.6378 102.122 56.6911 100.818 56.6911Z" fill="url(#paint1_linear)"/>
<path d="M40 90H34.9609V81.5977H39.8066V83.1387H36.8535V85.0078H39.6016V86.543H36.8535V88.4648H40V90ZM47.7461 87.4453H44.541V86.1504H47.7461V87.4453ZM58.8789 90H52.1113V88.9102L56.418 83.1387H52.4219V81.5977H58.8672V82.6582L54.6543 88.4648H58.8789V90ZM68.4766 90H63.4375V81.5977H68.2832V83.1387H65.3301V85.0078H68.0781V86.543H65.3301V88.4648H68.4766V90ZM78.1797 90H73.1406V81.5977H77.9863V83.1387H75.0332V85.0078H77.7812V86.543H75.0332V88.4648H78.1797V90ZM89.1777 81.5977L86.4414 87.0117V90H84.5488V87.0469L81.8828 81.5977H84.0449L85.3984 84.7324C85.4219 84.791 85.4863 85.0195 85.5918 85.418H85.6152C85.666 85.1367 85.7266 84.916 85.7969 84.7559L87.1738 81.5977H89.1777Z" fill="#010101" fill-opacity="0.67"/>
<path d="M28.8761 84.1747C28.7455 83.9144 28.4132 83.5938 27.571 83.5454C27.3827 83.5345 27.221 83.6654 27.2092 83.8377C27.1974 84.0099 27.3403 84.1583 27.5283 84.1692C27.9172 84.1915 28.1825 84.2887 28.2562 84.4356C28.2982 84.5193 28.3203 84.5773 28.3175 84.6439C28.309 84.8406 28.1143 85.1539 27.738 85.5771C27.2355 85.1555 26.615 84.7591 25.919 84.4168C25.2265 84.0763 24.5423 83.8587 24.0088 83.7061C24.0352 83.6409 24.0629 83.5776 24.0918 83.5161C24.3539 82.9581 24.6901 82.625 24.9912 82.625C25.2407 82.625 25.4596 82.8483 25.5994 83.0357C25.7057 83.1782 25.918 83.2148 26.0735 83.1174C26.2291 83.02 26.269 82.8256 26.1627 82.6831C25.7415 82.1185 25.2932 82 24.9912 82C24.3915 82 23.8495 82.4507 23.4651 83.269C23.421 83.3628 23.3794 83.4605 23.3405 83.5614C22.6968 83.4718 22.191 83.5338 22.1639 83.5373C22.1617 83.5376 22.1594 83.5379 22.1572 83.5382C21.5432 83.628 21.2674 83.8977 21.1441 84.1081C21.062 84.2481 21.0193 84.3996 21.0171 84.5585C21.0139 84.7825 21.089 85.0319 21.2402 85.2998C21.3267 85.4531 21.5325 85.5131 21.6999 85.4339C21.8673 85.3546 21.9328 85.166 21.8463 85.0127C21.7485 84.8395 21.6976 84.6851 21.6993 84.5665C21.7001 84.5083 21.7151 84.455 21.7452 84.4037C21.8357 84.2492 22.0742 84.1838 22.2602 84.1561C22.2958 84.152 22.6695 84.1124 23.1477 84.168C23.0039 84.7273 22.9274 85.353 22.9274 86C22.9274 86.6674 23.0425 87.2884 23.1629 87.7926C23.0923 87.8017 23.0227 87.8093 22.9545 87.8152C22.3155 87.8704 21.841 87.7672 21.7163 87.5459C21.694 87.5064 21.6829 87.4548 21.6823 87.388C21.6815 87.2994 21.7011 87.2063 21.7406 87.1114C21.8078 86.9502 21.7196 86.7696 21.5435 86.708C21.3675 86.6465 21.1704 86.7273 21.1032 86.8886C21.0332 87.0565 20.9985 87.2263 21 87.3932C21.0016 87.5603 21.0376 87.7041 21.1101 87.8327C21.3393 88.2392 21.8716 88.455 22.6281 88.455C22.7523 88.455 22.8826 88.4492 23.0185 88.4374C23.1219 88.4285 23.2277 88.4162 23.3355 88.4008C23.5378 88.9585 23.8105 89.3077 23.8492 89.3556C24.2627 89.8881 24.6984 90 24.9912 90C25.2932 90 25.7415 89.8815 26.1627 89.317C26.269 89.1745 26.2291 88.98 26.0735 88.8826C25.918 88.7853 25.7057 88.8218 25.5994 88.9643C25.4596 89.1517 25.2407 89.375 24.9912 89.375C24.751 89.375 24.539 89.1662 24.4034 88.9911C24.4013 88.9884 24.3992 88.9858 24.397 88.9831C24.3944 88.9799 24.1803 88.7175 24.0075 88.2702C24.6133 88.1233 25.2569 87.8932 25.8897 87.5938C26.5605 87.2764 27.1813 86.8977 27.685 86.4986C27.7002 86.4866 27.7136 86.4735 27.7259 86.4597C28.0747 86.8329 28.2696 87.1816 28.266 87.4335C28.2649 87.514 28.256 87.5642 28.2373 87.5963C28.146 87.7521 27.9043 87.8173 27.7176 87.8446C27.5316 87.8718 27.4048 88.032 27.4345 88.2025C27.4613 88.3562 27.6063 88.4658 27.771 88.4658C27.7888 88.4658 27.807 88.4645 27.8252 88.4618C28.4392 88.372 28.7151 88.1023 28.8384 87.8919C28.9324 87.7314 28.9465 87.5669 28.9483 87.4415C28.9541 87.0221 28.7025 86.5354 28.2186 86.0261C28.747 85.4424 28.9837 85.0271 28.9992 84.6686C29.0079 84.4675 28.9452 84.3124 28.8761 84.1747ZM24.108 84.3921C24.1019 84.395 24.0957 84.3978 24.0896 84.4007C23.9754 84.4547 23.8625 84.5107 23.7514 84.5681C23.7701 84.4786 23.7907 84.3908 23.8129 84.3048C23.9068 84.3317 24.0055 84.3607 24.108 84.3921ZM23.779 87.4379C23.8728 87.4875 23.9676 87.536 24.0635 87.5832C24.0738 87.5882 24.0841 87.5932 24.0944 87.5982C24.0058 87.623 23.9181 87.6459 23.8313 87.6669C23.8136 87.5931 23.7961 87.5166 23.779 87.4379ZM25.5767 87.0385C25.3766 87.1331 25.1759 87.2202 24.9764 87.2993C24.7791 87.2177 24.5808 87.1282 24.3862 87.0325C24.1297 86.9064 23.8806 86.7702 23.645 86.6277C23.623 86.4246 23.6097 86.2144 23.6097 86C23.6097 85.783 23.6189 85.5692 23.6367 85.3603C23.8802 85.2174 24.1374 85.0815 24.4027 84.956C24.597 84.864 24.7947 84.7782 24.9916 84.7C25.1904 84.7792 25.3934 84.8677 25.5963 84.9675C25.8479 85.0912 26.091 85.2242 26.3216 85.3635C26.3404 85.5667 26.3557 85.7812 26.3557 86C26.3557 86.2225 26.3399 86.4405 26.3207 86.6467C26.0839 86.7849 25.8346 86.9164 25.5767 87.0385ZM27.0348 86.1809C27.0367 86.1212 27.038 86.061 27.038 86C27.038 85.9482 27.037 85.8971 27.0356 85.8462C27.11 85.9027 27.1819 85.9597 27.2512 86.017C27.247 86.02 27.2427 86.0227 27.2387 86.0259C27.173 86.078 27.1048 86.1296 27.0348 86.1809ZM26.3728 83.5156C26.5612 83.5156 26.7139 83.6555 26.7139 83.8281C26.7139 84.0007 26.5612 84.1406 26.3728 84.1406C26.1844 84.1406 26.0316 84.0007 26.0316 83.8281C26.0316 83.6555 26.1844 83.5156 26.3728 83.5156ZM21.7505 86.1094C21.7505 85.9368 21.9032 85.7969 22.0916 85.7969C22.28 85.7969 22.4327 85.9368 22.4327 86.1094C22.4327 86.282 22.28 86.4219 22.0916 86.4219C21.9032 86.4219 21.7505 86.282 21.7505 86.1094ZM26.7821 88.1406C26.7821 88.3132 26.6294 88.4531 26.441 88.4531C26.2526 88.4531 26.0999 88.3132 26.0999 88.1406C26.0999 87.968 26.2526 87.8281 26.441 87.8281C26.6294 87.8281 26.7821 87.968 26.7821 88.1406Z" fill="#010101" fill-opacity="0.67"/>
</g>
<defs>
<filter id="filter0_b" x="-4" y="-4" width="128" height="128" filterUnits="userSpaceOnUse" color-interpolation-filters="sRGB">
<feFlood flood-opacity="0" result="BackgroundImageFix"/>
<feGaussianBlur in="BackgroundImage" stdDeviation="2"/>
<feComposite in2="SourceAlpha" operator="in" result="effect1_backgroundBlur"/>
<feBlend mode="normal" in="SourceGraphic" in2="effect1_backgroundBlur" result="shape"/>
</filter>
<linearGradient id="paint0_linear" x1="60.4947" y1="54.9752" x2="60.4947" y2="78.1727" gradientUnits="userSpaceOnUse">
<stop stop-color="#4338CA"/>
<stop offset="1" stop-color="#4338CA" stop-opacity="0"/>
</linearGradient>
<linearGradient id="paint1_linear" x1="60.4097" y1="26" x2="60.4097" y2="88" gradientUnits="userSpaceOnUse">
<stop stop-color="#5E56C8"/>
<stop offset="1" stop-color="#7975A7" stop-opacity="0.49"/>
</linearGradient>
</defs>
</svg>
