<?xml version="1.0" standalone="no"?>
<!DOCTYPE svg PUBLIC "-//W3C//DTD SVG 20010904//EN"
 "http://www.w3.org/TR/2001/REC-SVG-20010904/DTD/svg10.dtd">
<svg version="1.0" xmlns="http://www.w3.org/2000/svg"
 width="1200.000000pt" height="1200.000000pt" viewBox="0 0 1200.000000 1200.000000"
 preserveAspectRatio="xMidYMid meet">

<g transform="translate(0.000000,1200.000000) scale(0.100000,-0.100000)"
fill="#000000" stroke="none">
<path d="M2970 9079 c-69 -7 -123 -24 -180 -57 -54 -30 -310 -284 -335 -332
-81 -156 -80 -337 2 -478 38 -65 127 -151 193 -186 30 -16 79 -44 108 -63 117
-76 263 -97 389 -54 58 19 64 20 100 5 28 -12 54 -15 101 -10 67 7 95 -1 112
-34 8 -16 4 -35 -20 -89 -34 -78 -38 -127 -13 -178 34 -72 116 -80 195 -20 78
60 52 105 -28 48 -55 -40 -101 -40 -123 1 -17 30 -11 63 30 155 30 69 20 116
-31 151 -30 21 -44 23 -100 19 -36 -2 -76 -1 -90 3 -28 8 -30 7 61 40 150 55
269 188 303 339 8 37 22 83 30 103 63 149 28 332 -86 454 -84 89 -173 133
-294 144 -49 4 -102 13 -119 19 -43 18 -142 27 -205 20z m128 -58 c10 -6 5
-12 -18 -21 -17 -7 -48 -25 -68 -40 -35 -25 -47 -28 -154 -32 -113 -4 -115 -4
-93 14 34 27 118 67 161 77 50 12 155 13 172 2z m170 -66 c28 -20 52 -37 52
-39 0 -3 -17 0 -37 6 -21 6 -82 8 -135 6 -54 -3 -98 -4 -98 -2 0 11 124 61
155 63 6 1 34 -15 63 -34z m160 -1 c69 -30 152 -110 185 -177 30 -62 51 -172
37 -196 -9 -15 -9 -15 -10 0 -1 44 -73 159 -138 221 -37 35 -94 92 -127 127
-56 59 -58 62 -30 56 17 -4 54 -18 83 -31z m-513 -84 c-64 -64 -275 -300 -297
-331 -17 -23 -17 -22 -18 52 0 86 28 196 57 221 26 23 77 47 120 57 54 13 149
13 138 1z m419 -20 c54 -21 60 -26 84 -79 31 -66 42 -199 22 -270 l-11 -44
-25 53 c-13 29 -37 69 -53 89 -15 20 -38 55 -49 78 -25 49 -119 153 -156 172
-14 8 -26 19 -26 24 0 17 151 0 214 -23z m-261 -21 c46 -23 127 -86 127 -98 0
-4 -26 1 -57 12 -41 13 -85 19 -146 19 l-88 0 14 21 c13 21 82 66 100 67 4 0
27 -10 50 -21z m-524 -159 c-10 -60 1 -185 18 -213 3 -6 5 -56 5 -111 -2 -85
2 -112 23 -170 l24 -69 -45 44 c-25 25 -61 77 -82 118 -36 72 -37 79 -37 180
0 79 5 118 18 151 17 42 78 142 84 136 1 -1 -2 -31 -8 -66z m1014 -40 c25 -51
32 -80 35 -147 4 -81 4 -83 -29 -124 -31 -40 -103 -99 -120 -99 -14 0 2 103
28 175 27 74 35 192 20 270 l-8 40 21 -25 c12 -14 35 -54 53 -90z m-428 64
l48 -17 -29 -21 c-88 -62 -143 -160 -153 -270 l-6 -71 -34 45 c-59 78 -74 125
-79 232 -4 95 -4 98 19 107 40 16 181 13 234 -5z m-265 -279 c20 -42 54 -90
86 -122 31 -31 55 -65 59 -84 l7 -32 -59 5 c-32 3 -80 16 -107 29 -41 19 -53
31 -75 78 -23 49 -26 68 -26 161 0 88 4 113 23 155 37 81 46 77 53 -28 4 -77
11 -104 39 -162z m379 215 c33 -17 46 -69 46 -180 0 -97 -2 -110 -30 -165
l-30 -60 -47 2 c-28 1 -65 11 -90 25 -42 23 -43 24 -46 81 -6 110 43 214 130
277 47 34 43 33 67 20z m-549 -123 c-5 -32 -4 -86 0 -119 5 -34 8 -64 6 -66
-5 -4 -39 44 -60 85 -16 32 -16 35 10 85 26 53 45 81 49 76 2 -2 -1 -29 -5
-61z m689 -112 c1 -11 -11 -33 -25 -50 -25 -30 -25 -30 -20 -5 3 14 8 53 12
85 l7 60 13 -35 c7 -19 13 -44 13 -55z m-661 -172 c22 -16 58 -51 79 -78 22
-28 59 -63 82 -79 41 -29 42 -30 20 -38 -14 -5 -53 -4 -94 2 -83 13 -112 36
-157 125 -22 42 -32 79 -36 125 l-5 65 36 -46 c20 -26 54 -60 75 -76z m660 12
c-2 -2 -17 -7 -33 -11 l-30 -7 30 32 c28 31 30 31 33 11 2 -12 2 -23 0 -25z
m160 4 c-26 -47 -102 -126 -147 -152 l-31 -18 30 63 c23 49 38 67 67 82 21 10
52 29 68 42 17 13 31 24 33 24 2 0 -7 -18 -20 -41z m-437 -57 c-16 -5 -41 5
-41 17 0 7 10 6 26 -1 15 -7 21 -14 15 -16z m249 -18 c0 -12 -24 -51 -56 -90
-27 -34 -41 -42 -76 -47 -31 -4 -48 -1 -59 9 -16 14 -13 20 38 69 31 30 68 56
82 58 44 7 71 7 71 1z m-376 -41 c38 -4 66 -12 73 -22 17 -22 16 -29 -8 -41
-16 -9 -29 -7 -62 9 -48 24 -114 76 -83 66 11 -3 47 -8 80 -12z m161 -3 c-10
-11 -22 -17 -26 -14 -15 9 -10 22 9 27 33 9 35 7 17 -13z m-41 -144 l59 -12
-40 -12 c-51 -15 -176 -15 -228 0 l-40 12 64 7 c35 5 66 11 69 14 8 8 51 5
116 -9z"/>
<path d="M5696 6295 c-149 -29 -300 -119 -363 -218 -27 -43 -53 -135 -53 -189
l0 -38 -619 0 -619 0 -32 -26 c-64 -54 -60 17 -60 -1114 0 -851 2 -1036 14
-1063 29 -69 89 -97 212 -97 l70 0 22 39 22 39 -111 4 c-102 3 -113 5 -130 27
-18 22 -19 53 -19 847 0 453 4 824 8 824 5 0 106 -38 226 -85 120 -47 220 -85
222 -85 2 0 4 54 4 120 l0 120 428 -2 427 -3 7 -64 c27 -241 176 -603 268
-648 31 -16 71 -18 392 -18 l357 0 3 -120 3 -119 105 -42 105 -41 185 -6 c161
-5 194 -9 256 -30 129 -45 214 -100 342 -221 87 -81 87 -82 244 -141 l158 -60
0 -52 c0 -50 2 -53 25 -53 23 0 25 4 25 41 0 29 4 40 13 36 6 -2 40 -14 75
-27 l62 -23 0 -62 c0 -99 -12 -109 -149 -113 l-111 -4 22 -39 22 -39 70 0
c123 0 183 28 212 97 12 27 14 212 14 1063 0 1131 4 1060 -60 1114 l-32 26
-634 0 c-349 0 -634 1 -634 3 0 2 -5 30 -11 62 -27 150 -115 222 -259 213 -51
-3 -59 0 -95 30 -54 45 -185 108 -265 127 -95 23 -269 28 -364 10z m1444 -840
l0 -55 -55 0 -55 0 0 55 0 55 55 0 55 0 0 -55z m540 0 l0 -55 -220 0 -220 0 0
55 0 55 220 0 220 0 0 -55z m-935 -140 c30 -29 32 -62 9 -149 -38 -149 -127
-276 -194 -276 -17 0 -30 3 -30 6 0 3 15 47 34 98 18 50 46 143 60 206 15 63
29 121 31 128 8 21 64 14 90 -13z m395 -80 l0 -55 -55 0 -55 0 0 55 0 55 55 0
55 0 0 -55z m540 0 l0 -55 -220 0 -220 0 0 55 0 55 220 0 220 0 0 -55z m-540
-210 l0 -55 -55 0 -55 0 0 55 0 55 55 0 55 0 0 -55z m540 0 l0 -55 -220 0
-220 0 0 55 0 55 220 0 220 0 0 -55z m-540 -210 l0 -55 -55 0 -55 0 0 55 0 55
55 0 55 0 0 -55z m540 0 l0 -55 -220 0 -220 0 0 55 0 55 220 0 220 0 0 -55z"/>
<path d="M1535 4845 l-570 -570 -67 0 c-57 0 -70 -4 -93 -25 -43 -40 -58 -77
-52 -133 8 -86 90 -144 177 -126 l35 7 580 -581 580 -582 -141 -5 c-135 -5
-143 -6 -190 -35 -55 -35 -103 -103 -114 -165 l-7 -40 649 0 650 0 -7 37 c-24
129 -122 202 -271 203 -75 0 -82 2 -91 23 -9 19 -24 27 -69 35 -85 18 -91 16
-104 -23 l-12 -35 -76 0 -77 0 -611 613 -611 612 0 80 -1 80 564 564 564 564
-33 36 -32 36 -570 -570z"/>
<path d="M5042 3716 c-20 -108 -87 -301 -146 -421 -46 -93 -82 -150 -175 -276
-13 -18 -11 -19 33 -19 41 0 46 2 46 23 0 47 22 60 106 66 l79 6 37 315 c38
313 46 445 20 306z"/>
<path d="M6941 3750 c0 -19 17 -174 37 -345 l37 -310 79 -6 c84 -6 106 -19
106 -66 0 -21 5 -23 46 -23 44 0 46 1 33 19 -93 126 -129 183 -175 276 -58
120 -115 281 -144 408 -12 56 -18 71 -19 47z"/>
<path d="M9233 3481 c-231 -5 -264 -8 -280 -23 -11 -11 -14 -21 -8 -27 6 -4
129 -54 275 -111 146 -56 282 -109 303 -117 l37 -15 0 -273 c0 -260 -1 -273
-21 -299 l-20 -26 65 0 c58 0 67 3 85 26 20 26 21 38 21 330 l0 304 130 0 130
0 0 -105 0 -106 46 -19 c25 -11 50 -20 55 -20 5 0 9 60 9 135 0 213 -12 225
-230 225 l-140 0 0 34 c0 22 -9 45 -24 63 -28 33 -29 33 -433 24z"/>
<path d="M4730 2465 l0 -125 35 0 35 0 0 125 0 125 -35 0 -35 0 0 -125z"/>
<path d="M7200 2465 l0 -125 35 0 35 0 0 125 0 125 -35 0 -35 0 0 -125z"/>
</g>
</svg>
