<?xml version="1.0" standalone="no"?>
<!DOCTYPE svg PUBLIC "-//W3C//DTD SVG 20010904//EN"
 "http://www.w3.org/TR/2001/REC-SVG-20010904/DTD/svg10.dtd">
<svg version="1.0" xmlns="http://www.w3.org/2000/svg"
 width="1200.000000pt" height="1200.000000pt" viewBox="0 0 1200.000000 1200.000000"
 preserveAspectRatio="xMidYMid meet">

<g transform="translate(0.000000,1200.000000) scale(0.100000,-0.100000)"
fill="#000000" stroke="none">
<path d="M9410 7570 l0 -600 40 0 40 0 0 600 0 600 -40 0 -40 0 0 -600z"/>
<path d="M7273 7014 c-15 -24 -15 -29 -2 -53 10 -19 24 -27 49 -29 38 -4 60
16 60 54 0 55 -76 75 -107 28z"/>
<path d="M7606 7025 c-18 -19 -21 -48 -6 -76 17 -30 75 -26 97 7 15 24 15 29
2 53 -18 32 -68 40 -93 16z"/>
<path d="M7932 7028 c-17 -17 -15 -73 3 -88 21 -17 64 -16 82 3 19 18 20 61 3
82 -15 18 -71 20 -88 3z"/>
<path d="M8668 6605 c-50 -13 -63 -20 -121 -74 -58 -54 -79 -103 -81 -185 -1
-67 0 -71 26 -83 22 -11 32 -10 72 7 26 11 67 33 91 50 50 35 66 39 40 10 -18
-20 -17 -20 29 -20 36 0 52 5 71 24 23 23 24 23 41 5 9 -10 24 -21 34 -24 11
-4 20 -20 24 -47 4 -22 19 -66 34 -96 l27 -56 5 46 c8 65 24 81 77 75 42 -4
43 -4 53 32 15 55 12 121 -9 167 -20 44 -63 84 -91 84 -9 0 -22 11 -29 24 -23
42 -81 66 -168 70 -43 2 -99 -2 -125 -9z"/>
<path d="M5946 6586 c-21 -8 -50 -25 -65 -39 -14 -13 -31 -23 -38 -20 -23 8
-73 -28 -95 -70 -23 -44 -31 -144 -16 -198 7 -25 11 -26 51 -22 51 6 64 -6 76
-68 l8 -44 26 55 c14 30 29 71 32 90 5 26 17 42 46 63 37 25 42 26 87 16 51
-11 175 -15 191 -5 14 9 41 -46 42 -86 l1 -33 15 35 c8 19 18 53 21 75 2 22 9
48 14 57 20 40 -63 131 -158 175 -68 31 -181 40 -238 19z"/>
<path d="M3250 6563 c-19 -7 -50 -28 -67 -47 -18 -20 -44 -38 -58 -42 -71 -18
-114 -141 -85 -245 10 -36 11 -36 53 -32 53 6 69 -10 77 -75 l5 -46 27 56 c15
30 30 74 34 96 4 27 13 43 24 47 10 3 25 14 34 24 17 18 18 18 41 -5 19 -19
35 -24 71 -24 46 0 47 0 29 20 -26 29 -10 25 40 -10 24 -17 65 -39 91 -50 40
-17 50 -18 72 -7 26 12 27 16 26 83 -1 49 -8 82 -22 110 -25 49 -101 120 -150
141 -46 19 -192 23 -242 6z"/>
<path d="M9223 5873 l-193 -3 0 -45 0 -45 57 0 57 0 -26 -27 c-14 -16 -98
-133 -188 -260 -89 -128 -166 -235 -170 -238 -5 -3 -55 18 -112 46 l-103 51 3
107 c1 58 5 140 8 181 5 67 9 77 39 107 18 18 31 33 29 33 -21 0 -87 -47 -111
-77 -54 -70 -193 -272 -193 -281 0 -4 11 -12 25 -18 l26 -9 -50 -60 c-43 -52
-54 -60 -79 -57 -17 2 -33 -1 -37 -7 -4 -8 -15 -7 -33 3 -15 7 -86 18 -159 25
-73 6 -154 18 -180 26 l-48 15 -27 -33 c-15 -17 -28 -37 -28 -43 0 -18 453
-254 489 -254 54 0 96 27 141 91 23 32 43 59 44 59 2 0 34 -17 72 -38 l69 -37
5 -57 c3 -31 7 -58 10 -60 23 -19 88 -52 136 -69 71 -24 141 -26 181 -6 47 25
164 155 235 263 122 182 195 352 206 474 l6 65 14 -45 c20 -66 27 -330 13
-517 -13 -170 -66 -611 -75 -620 -3 -3 -20 5 -37 18 -24 17 -51 24 -94 27 -54
3 -367 -13 -720 -38 -71 -5 -260 -9 -420 -10 -259 0 -294 -2 -330 -19 -49 -22
-91 -69 -102 -114 -4 -18 -7 -321 -5 -674 3 -560 5 -643 18 -643 12 0 14 -12
12 -57 l-3 -58 -45 -7 c-25 -4 -60 -10 -77 -13 l-33 -6 0 796 0 795 -40 0 -40
0 0 -798 0 -799 -39 -18 c-68 -30 -131 -114 -131 -175 0 -18 -6 -20 -80 -20
-76 0 -80 1 -80 23 0 39 -47 123 -84 152 -20 15 -71 38 -114 50 l-77 22 0 44
c0 38 3 44 23 47 l23 3 -3 622 -3 622 -23 43 c-34 64 -87 118 -145 146 l-51
26 -576 0 -576 0 -51 -26 c-58 -28 -111 -82 -145 -146 l-23 -43 -3 -622 -3
-622 23 -3 c20 -3 23 -9 23 -47 l0 -44 -77 -22 c-43 -12 -94 -35 -114 -50 -37
-29 -84 -113 -84 -152 0 -23 -1 -23 -165 -23 -152 0 -202 9 -140 24 21 5 279
198 329 247 20 18 20 19 0 40 -52 59 -164 75 -273 38 -53 -18 -65 -19 -72 -8
-5 8 -9 341 -9 742 l0 727 -40 0 -40 0 -2 -559 -3 -559 -164 477 c-90 262
-174 497 -187 523 -26 51 -69 89 -123 107 -20 6 -105 11 -205 11 -94 1 -229 5
-301 9 -76 5 -134 5 -140 0 -5 -5 -165 -9 -356 -9 l-347 0 -21 -43 c-22 -45
-28 -159 -12 -201 6 -16 -1 -24 -40 -43 -37 -19 -53 -35 -70 -69 -34 -71 -15
-136 55 -188 27 -20 40 -21 517 -24 l489 -3 0 -439 c0 -384 2 -440 15 -440 13
0 15 -27 15 -185 l0 -186 -1289 7 -1290 7 -13 -28 c-11 -25 -10 -29 11 -46 23
-19 136 -19 4953 -17 4864 3 4930 3 4944 22 12 17 12 23 0 40 -13 21 -23 21
-437 26 -233 3 -410 8 -394 12 74 16 174 112 191 181 6 27 6 27 -46 27 -52 0
-54 -1 -105 -58 -64 -71 -137 -112 -210 -119 -62 -7 -63 -9 -8 -28 34 -13 7
-14 -243 -15 -154 0 -499 -2 -765 -4 -266 -2 -450 -1 -408 2 128 12 259 93
259 161 0 15 -25 83 -55 151 -53 119 -56 139 -23 140 4 0 -29 105 -73 233 -44
127 -82 239 -84 247 -3 16 -88 262 -100 292 -6 16 18 17 348 20 341 3 357 4
383 24 68 51 90 122 56 186 -19 37 -19 37 2 82 l21 45 85 1 c100 0 151 23 184
80 21 34 21 47 21 720 0 671 0 686 -20 720 -25 42 -67 67 -120 72 -22 2 -127
2 -232 1z m-2773 -2382 c0 -247 4 -451 9 -453 5 -1 6 -81 3 -175 l-5 -173
-457 0 -457 0 -5 173 c-3 94 -2 174 3 175 5 2 9 206 9 453 l0 449 450 0 450 0
0 -449z m1809 -1 c101 -295 159 -450 168 -450 13 0 21 -15 37 -66 6 -20 -1
-25 -71 -50 -52 -19 -89 -40 -114 -65 -34 -34 -69 -110 -69 -151 0 -16 -9 -18
-83 -18 -46 0 -118 3 -160 6 l-77 7 0 174 c0 166 1 175 20 180 20 5 20 14 20
444 l0 439 88 0 87 0 154 -450z m-4089 -93 c125 -364 134 -388 154 -383 20 5
24 -4 55 -131 25 -100 40 -143 57 -160 l23 -23 -38 0 c-37 0 -39 1 -44 40 -7
53 -41 106 -88 137 -29 19 -69 30 -176 47 l-138 22 -3 57 c-3 52 -1 57 18 57
20 0 20 4 21 398 0 330 3 391 13 362 7 -19 72 -210 146 -423z"/>
<path d="M2343 5850 c-18 -10 -40 -34 -50 -52 -17 -31 -18 -77 -18 -718 0
-673 0 -686 21 -720 23 -39 86 -80 124 -80 43 0 108 37 130 72 19 32 20 49 20
726 0 765 3 732 -63 772 -20 13 -50 20 -82 20 -32 0 -62 -7 -82 -20z"/>
<path d="M7094 5675 c-93 -102 -173 -185 -178 -185 -4 0 -103 60 -220 132
-116 73 -233 141 -261 150 -34 12 -82 17 -147 18 l-97 0 -6 -37 c-13 -79 -36
-165 -60 -219 -27 -61 -110 -184 -125 -184 -15 0 -98 123 -125 184 -24 54 -47
140 -60 219 l-6 37 -97 0 c-108 0 -154 -10 -203 -43 -48 -32 -96 -100 -104
-147 -4 -25 -12 -40 -21 -40 -8 0 -19 -10 -24 -22 -9 -22 -200 -730 -200 -742
0 -3 -177 -6 -394 -6 -336 0 -395 -2 -406 -15 -7 -8 -10 -22 -6 -30 5 -13 60
-15 426 -15 l420 0 9 23 c4 12 48 172 97 355 l89 334 5 -274 c5 -255 6 -276
27 -313 26 -49 55 -76 110 -104 40 -20 56 -21 362 -21 l320 0 3 102 3 101 50
18 c28 10 70 18 93 18 37 1 45 -2 50 -21 4 -13 9 104 12 258 l5 282 220 -130
c121 -71 231 -131 243 -135 62 -15 88 7 297 244 110 125 208 237 218 249 17
23 17 23 -55 76 -40 30 -78 57 -85 61 -7 4 -76 -65 -179 -178z"/>
<path d="M3410 5665 c16 -44 30 -120 45 -245 4 -33 -1 -28 -133 102 -75 75
-147 141 -159 147 -61 31 -154 2 -194 -61 -29 -47 -23 -144 14 -219 58 -119
213 -290 382 -421 l90 -70 3 61 3 62 48 -40 49 -41 451 0 451 0 0 91 0 91 65
-7 65 -7 0 81 0 81 -27 0 c-16 1 -196 9 -402 19 l-374 19 -198 203 c-192 198
-197 203 -179 154z"/>
<path d="M7845 5410 c-4 -6 6 -10 22 -10 22 0 25 2 13 10 -19 12 -27 12 -35 0z"/>
<path d="M10965 4121 c-10 -34 -111 -117 -203 -169 -48 -27 -139 -75 -202
-107 -63 -32 -145 -77 -182 -101 -59 -38 -68 -47 -73 -81 -4 -21 -9 -51 -11
-68 -11 -63 -56 -185 -89 -240 -19 -32 -35 -59 -35 -61 0 -11 87 -2 117 13 54
25 144 113 257 253 57 69 118 139 136 154 l33 27 -22 40 c-25 44 -26 44 22 24
20 -8 43 -15 51 -15 26 0 111 95 148 166 35 66 72 173 64 181 -2 3 -7 -5 -11
-16z"/>
<path d="M9601 3605 c-129 -37 -258 -136 -349 -272 l-42 -63 92 46 c51 24 110
50 132 56 28 9 41 19 48 40 12 33 28 36 35 8 6 -24 7 -24 58 -5 91 33 156 14
244 -70 l58 -55 115 6 116 7 -19 54 c-10 30 -28 70 -39 89 -34 54 -117 121
-178 145 -75 28 -198 34 -271 14z m149 -3 c0 -6 -39 -22 -145 -61 -5 -2 -1 6
11 18 31 33 134 66 134 43z m230 -107 c23 -13 19 -14 -55 -14 -74 0 -78 1 -55
14 14 8 39 14 55 14 17 0 41 -6 55 -14z"/>
<path d="M9760 3220 c0 -19 7 -20 264 -20 l265 0 3 -37 c3 -37 4 -38 49 -41
l45 -3 11 56 c5 30 7 57 5 60 -3 3 -149 5 -324 5 -311 0 -318 0 -318 -20z"/>
<path d="M2165 3219 c-13 -21 7 -119 36 -178 30 -60 108 -141 135 -141 10 0
14 17 14 64 0 73 -12 115 -51 171 -30 45 -123 103 -134 84z m71 -84 c33 -52
78 -145 70 -145 -2 0 -29 45 -59 100 -30 55 -53 100 -51 100 2 0 20 -25 40
-55z"/>
<path d="M10290 3043 c0 -10 -3 -28 -6 -41 -6 -22 -5 -23 42 -20 49 3 49 3 52
41 l3 37 -45 0 c-37 0 -46 -3 -46 -17z"/>
<path d="M1587 2999 c-74 -49 -127 -139 -127 -215 0 -39 14 -43 61 -18 55 28
126 172 117 239 l-3 26 -48 -32z"/>
</g>
</svg>
